<svg width="36" height="36" viewBox="0 0 36 36" fill="none" xmlns="http://www.w3.org/2000/svg">
<g clip-path="url(#clip0)">
<path d="M34.8552 0.111316C34.3309 -0.148207 33.7006 0.0618867 33.4389 0.581988L23.8118 19.8532L21.9261 18.9087C20.3647 18.127 18.4613 18.7635 17.6795 20.3208L17.2075 21.2634L28.5248 26.9317L28.9968 25.9887C29.7764 24.4318 29.1534 22.5307 27.5847 21.7432L25.6987 20.7985L35.3259 1.52748C35.5864 1.00632 35.3753 0.372879 34.8552 0.111316Z" fill="black" fill-opacity="0.26"/>
<path d="M12.1641 36.0001C12.7466 36.0001 13.2188 35.5279 13.2188 34.9454C13.2188 34.3629 12.7466 33.8907 12.1641 33.8907C11.5816 33.8907 11.1094 34.3629 11.1094 34.9454C11.1094 35.5279 11.5816 36.0001 12.1641 36.0001Z" fill="black" fill-opacity="0.26"/>
<path d="M1.61719 29.672C2.19968 29.672 2.67188 29.1998 2.67188 28.6173C2.67188 28.0348 2.19968 27.5626 1.61719 27.5626C1.0347 27.5626 0.5625 28.0348 0.5625 28.6173C0.5625 29.1998 1.0347 29.672 1.61719 29.672Z" fill="black" fill-opacity="0.26"/>
<path d="M5.83594 31.7814C6.41843 31.7814 6.89062 31.3092 6.89062 30.7267C6.89062 30.1442 6.41843 29.672 5.83594 29.672C5.25345 29.672 4.78125 30.1442 4.78125 30.7267C4.78125 31.3092 5.25345 31.7814 5.83594 31.7814Z" fill="black" fill-opacity="0.26"/>
<path d="M7.94531 33.8907H3.72656C3.14466 33.8907 2.67188 33.418 2.67188 32.8361C2.67188 32.2531 2.20015 31.7814 1.61719 31.7814C1.03423 31.7814 0.5625 32.2531 0.5625 32.8361C0.5625 34.5808 1.98183 36.0001 3.72656 36.0001H7.94531C8.52827 36.0001 9 35.5284 9 34.9454C9 34.3625 8.52827 33.8907 7.94531 33.8907Z" fill="black" fill-opacity="0.26"/>
<path d="M7.63834 27.2864C7.17688 27.3441 6.80816 27.6974 6.7299 28.1547C6.65164 28.6131 6.88128 29.0683 7.29641 29.2763L12.3361 31.7998C13.2456 32.2551 14.2507 32.4363 15.2313 32.3323C15.1159 32.7998 15.3353 33.3014 15.7834 33.527L20.4986 35.8887C20.8949 36.0842 21.3543 36.0153 21.6718 35.7343C21.8368 35.5872 25.429 32.3553 27.5288 28.7931L16.166 23.1021C13.6201 26.4847 7.70296 27.2779 7.63834 27.2864Z" fill="black" fill-opacity="0.26"/>
</g>
<defs>
<clipPath id="clip0">
<rect width="36" height="36" fill="white"/>
</clipPath>
</defs>
</svg>
