<svg width="435" height="180" viewBox="0 0 435 180" fill="none" xmlns="http://www.w3.org/2000/svg">
<g clip-path="url(#clip0)">
<g clip-path="url(#clip1)">
<path d="M16.523 56.866L43.8889 95.9117L64.2467 139.526L63.8722 139.742C57.2817 143.547 55.0233 151.976 58.8271 158.564L8.7221 71.7795C6.2321 67.4667 7.71118 61.9535 12.0218 59.4648L16.523 56.866Z" fill="#1558DB"/>
<path d="M133.778 108.438L142.212 123.046L74.753 161.993C71.9744 163.597 68.4184 162.645 66.814 159.866L64.192 155.324C62.5878 152.546 63.5404 148.99 66.3193 147.386L133.778 108.438L133.778 108.438Z" fill="#D9ECFD"/>
<path d="M137.995 115.742L142.212 123.046L74.7529 161.993C71.9743 163.598 68.4183 162.645 66.8139 159.866L65.5029 157.595L137.995 115.742Z" fill="#C5E2FF"/>
<path d="M82.2795 18.9015L16.5226 56.8663L64.2464 139.526L63.8716 139.743C57.2813 143.548 55.0233 151.975 58.8282 158.565L61.3258 162.891C65.1307 169.481 73.5577 171.739 80.148 167.934L146.28 129.753C147.142 129.255 147.437 128.153 146.939 127.29L144.622 123.276C144.124 122.413 143.021 122.118 142.159 122.616L76.0275 160.797C73.3792 162.326 69.9926 161.419 68.4635 158.77L65.9659 154.444C64.4368 151.796 65.3444 148.409 67.9927 146.88L134.124 108.699C134.987 108.201 135.282 107.098 134.784 106.236L131.565 100.66L84.7423 19.5613C84.2445 18.6991 83.1418 18.4037 82.2795 18.9015V18.9015Z" fill="#369DFC"/>
<path d="M63.8717 139.742C57.2815 143.547 55.0235 151.974 58.8283 158.564L61.326 162.89C65.1308 169.481 73.5578 171.739 80.1481 167.934L146.28 129.753C147.142 129.255 147.437 128.152 146.94 127.29L144.622 123.275C144.124 122.413 143.021 122.118 142.159 122.615L76.0275 160.797C73.3792 162.326 69.9926 161.418 68.4634 158.77L65.9658 154.444C64.4367 151.795 65.3441 148.409 67.9926 146.88L134.124 108.699C134.987 108.201 135.282 107.098 134.784 106.236L131.565 100.66L63.8718 139.742L63.8717 139.742Z" fill="#0F42A4"/>
</g>
<g clip-path="url(#clip2)">
<path d="M57.1584 22.5664L69.5196 68.6171L73.7327 116.564L73.3068 116.639C65.8124 117.96 60.8076 125.108 62.1286 132.6L44.7273 33.9125C43.8625 29.0081 47.138 24.3333 52.0399 23.469L57.1584 22.5664Z" fill="#DB3915"/>
<path d="M149.704 111.132L152.633 127.743L75.921 141.27C72.7613 141.827 69.7456 139.715 69.1884 136.555L68.2778 131.391C67.7206 128.231 69.832 125.215 72.992 124.658L149.704 111.132L149.704 111.132Z" fill="#D9ECFD"/>
<path d="M151.168 119.438L152.633 127.743L75.9211 141.27C72.7614 141.827 69.7457 139.715 69.1885 136.555L68.7332 133.973L151.168 119.438Z" fill="#C5E2FF"/>
<path d="M131.934 9.38148L57.1579 22.5665L73.7322 116.564L73.3061 116.639C65.8119 117.961 60.8079 125.107 62.1293 132.601L62.9967 137.521C64.3181 145.015 71.4646 150.019 78.9588 148.697L154.161 135.437C155.142 135.264 155.796 134.329 155.623 133.349L154.818 128.783C154.645 127.803 153.71 127.148 152.73 127.321L77.528 140.581C74.5164 141.112 71.6444 139.101 71.1133 136.09L70.2459 131.17C69.7148 128.158 71.7259 125.287 74.7375 124.756L149.94 111.495C150.92 111.322 151.575 110.387 151.402 109.407L150.284 103.066L134.023 10.8438C133.85 9.86338 132.915 9.20857 131.934 9.38148V9.38148Z" fill="#FC5A36"/>
<path d="M73.3062 116.639C65.8121 117.96 60.8081 125.107 62.1295 132.601L62.9969 137.52C64.3183 145.014 71.4648 150.018 78.959 148.697L154.161 135.437C155.142 135.264 155.796 134.329 155.623 133.348L154.818 128.783C154.646 127.802 153.71 127.148 152.73 127.321L77.5279 140.581C74.5163 141.112 71.6443 139.101 71.1132 136.089L70.2458 131.17C69.7147 128.158 71.7256 125.286 74.7374 124.755L149.94 111.495C150.92 111.322 151.575 110.387 151.402 109.407L150.284 103.066L73.3063 116.639L73.3062 116.639Z" fill="#A42B0F"/>
<path d="M122.7 46.6611L80.3957 54.1205C79.4439 54.2883 78.5362 53.6527 78.3684 52.7009L75.3661 35.6743C75.1983 34.7225 75.8339 33.8149 76.7857 33.647L119.09 26.1877C120.041 26.0199 120.949 26.6554 121.117 27.6073L124.119 44.6336C124.287 45.5857 123.651 46.4933 122.7 46.6611Z" fill="#FFC85E"/>
<path d="M121.302 76.3984L91.8803 81.5862C90.8295 81.7715 89.828 81.07 89.6428 80.0195C89.4575 78.9689 90.159 77.9671 91.2095 77.7819L120.631 72.5941C121.682 72.4088 122.683 73.1103 122.868 74.1609C123.054 75.2114 122.352 76.2132 121.302 76.3984Z" fill="#D9ECFD"/>
<path d="M122.904 85.4828L93.4821 90.6706C92.4313 90.8559 91.4298 90.1544 91.2446 89.1038C91.0593 88.0533 91.7608 87.0515 92.8113 86.8663L122.233 81.6785C123.284 81.4932 124.285 82.1947 124.47 83.2452C124.656 84.2958 123.954 85.2975 122.904 85.4828Z" fill="#D9ECFD"/>
</g>
<path d="M175.072 94.916C173.135 94.916 171.608 94.5856 170.492 93.9248C168.919 93.0133 168.133 91.612 168.133 89.7207C168.133 88.4674 168.43 87.1117 169.022 85.6533C169.888 86.5876 170.685 87.2484 171.415 87.6357C172.144 88.0003 172.918 88.1826 173.739 88.1826C176.063 88.1826 177.852 86.7471 179.105 83.876C179.629 82.7139 180.016 81.4036 180.267 79.9453C180.518 78.4642 180.643 77.0173 180.643 75.6045C180.643 72.9157 180.176 70.8193 179.242 69.3154C178.125 67.5609 176.382 66.6836 174.012 66.6836C172.759 66.6836 171.688 66.7633 170.799 66.9229L165.057 93.7197H154.974L164.476 49.1836L174.833 47.8164L171.551 63.334H171.961C173.306 63.334 174.593 63.0036 175.824 62.3428C177.054 61.682 178.137 60.7819 179.071 59.6426C179.982 58.526 180.7 57.2956 181.224 55.9512C181.771 54.6068 182.044 53.2852 182.044 51.9863C182.044 50.9837 181.862 50.0381 181.498 49.1494C181.156 48.238 180.632 47.4404 179.925 46.7568C178.307 45.2074 175.938 44.4326 172.816 44.4326C169.945 44.4326 167.222 45.0479 164.647 46.2783C161.776 47.6683 159.577 49.5482 158.05 51.918C156.227 54.6751 155.316 57.8538 155.316 61.4541C155.316 62.958 155.487 64.1201 155.829 64.9404C155.92 65.2367 156.034 65.4987 156.17 65.7266C156.262 65.8861 156.307 66.0456 156.307 66.2051C153.823 66.2051 151.955 65.7152 150.702 64.7354C149.448 63.7327 148.822 62.0807 148.822 59.7793C148.822 56.5892 150.041 53.5472 152.479 50.6533C153.618 49.2861 154.974 48.0329 156.546 46.8936C158.141 45.7314 159.885 44.7288 161.776 43.8857C165.764 42.1084 169.911 41.2197 174.217 41.2197C179.025 41.2197 182.796 42.359 185.531 44.6377C186.716 45.6403 187.604 46.8138 188.197 48.1582C188.812 49.4798 189.12 50.8812 189.12 52.3623C189.12 54.5726 188.527 56.6234 187.342 58.5146C186.021 60.611 184.278 62.263 182.113 63.4707C184.916 63.972 187.046 65.3278 188.504 67.5381C189.758 69.4749 190.384 71.8789 190.384 74.75C190.384 75.9349 190.27 77.2451 190.042 78.6807C189.815 80.1162 189.473 81.5404 189.017 82.9531C187.901 86.4622 186.317 89.208 184.266 91.1904C181.714 93.6742 178.649 94.916 175.072 94.916ZM204.569 54.9258C203.817 54.9258 203.099 54.7891 202.416 54.5156C201.732 54.2194 201.139 53.8206 200.638 53.3193C200.137 52.8408 199.738 52.2598 199.442 51.5762C199.168 50.8926 199.032 50.1748 199.032 49.4229C199.032 48.6709 199.168 47.9531 199.442 47.2695C199.738 46.5859 200.137 45.9821 200.638 45.458C201.139 44.9339 201.732 44.5352 202.416 44.2617C203.099 43.9655 203.817 43.8174 204.569 43.8174C205.321 43.8174 206.039 43.9655 206.722 44.2617C207.406 44.5352 208.01 44.9339 208.534 45.458C209.058 45.9821 209.457 46.5859 209.73 47.2695C210.026 47.9531 210.174 48.6709 210.174 49.4229C210.174 50.1748 210.026 50.8926 209.73 51.5762C209.457 52.2598 209.058 52.8408 208.534 53.3193C208.01 53.8206 207.406 54.2194 206.722 54.5156C206.039 54.7891 205.321 54.9258 204.569 54.9258ZM199.818 94.1299C197.585 94.1299 195.819 93.4691 194.52 92.1475C193.062 90.6891 192.333 88.5586 192.333 85.7559C192.333 84.4342 192.515 82.9076 192.879 81.1758L197.63 58.7197H207.713L202.689 82.5088C202.507 83.1012 202.416 83.8532 202.416 84.7646C202.416 85.7217 202.632 86.3939 203.065 86.7812C203.521 87.1686 204.25 87.3623 205.252 87.3623C205.936 87.3623 206.597 87.2142 207.235 86.918C207.896 86.599 208.5 86.166 209.046 85.6191C210.163 84.5026 211.006 83.0215 211.576 81.1758H214.515C213.262 84.7077 211.69 87.5218 209.798 89.6182C208.203 91.3271 206.403 92.5576 204.398 93.3096C202.94 93.8564 201.413 94.1299 199.818 94.1299ZM220.907 94.1299C217.717 94.1299 215.29 93.3551 213.626 91.8057C211.963 90.2334 211.131 88.0231 211.131 85.1748C211.131 83.6481 211.291 82.3151 211.61 81.1758L219.095 46.1074L229.452 44.7061L226.102 60.4629C227.446 59.6426 228.586 59.0957 229.52 58.8223C230.204 58.6172 230.978 58.5146 231.844 58.5146C234.465 58.5146 236.458 59.3919 237.826 61.1465C239.352 63.1289 240.116 66.2393 240.116 70.4775C240.116 71.9359 239.979 73.5195 239.706 75.2285C239.432 76.9147 239.011 78.5895 238.441 80.2529C237.074 84.2406 235.091 87.4307 232.494 89.8232C229.349 92.6943 225.487 94.1299 220.907 94.1299ZM224.837 87.3623C226.25 87.3623 227.64 86.4167 229.007 84.5254C230.192 82.8392 231.172 80.6289 231.947 77.8945C232.676 75.2057 233.041 72.6423 233.041 70.2041C233.041 68.3128 232.744 66.7633 232.152 65.5557C231.833 64.8949 231.434 64.3822 230.956 64.0176C230.477 63.653 229.93 63.4707 229.315 63.4707C228.517 63.4707 227.8 63.5505 227.162 63.71C226.205 63.9606 225.544 64.3024 225.179 64.7354L221.351 82.5088C221.214 83.0785 221.146 83.6139 221.146 84.1152C221.146 86.2799 222.376 87.3623 224.837 87.3623ZM249.652 94.1299C247.419 94.1299 245.653 93.4691 244.354 92.1475C242.896 90.6891 242.167 88.5586 242.167 85.7559C242.167 84.4342 242.349 82.9076 242.713 81.1758L250.199 46.1074L260.555 44.7061L252.523 82.5088C252.341 83.1012 252.25 83.8532 252.25 84.7646C252.25 85.7217 252.466 86.3939 252.899 86.7812C253.355 87.1686 254.084 87.3623 255.086 87.3623C255.77 87.3623 256.431 87.2142 257.069 86.918C257.73 86.599 258.333 86.166 258.88 85.6191C259.997 84.5026 260.84 83.0215 261.41 81.1758H264.349C263.096 84.7077 261.524 87.5218 259.632 89.6182C258.037 91.3271 256.237 92.5576 254.232 93.3096C252.774 93.8564 251.247 94.1299 249.652 94.1299ZM273.133 54.9258C272.381 54.9258 271.664 54.7891 270.98 54.5156C270.296 54.2194 269.704 53.8206 269.203 53.3193C268.701 52.8408 268.303 52.2598 268.006 51.5762C267.733 50.8926 267.596 50.1748 267.596 49.4229C267.596 48.6709 267.733 47.9531 268.006 47.2695C268.303 46.5859 268.701 45.9821 269.203 45.458C269.704 44.9339 270.296 44.5352 270.98 44.2617C271.664 43.9655 272.381 43.8174 273.133 43.8174C273.885 43.8174 274.603 43.9655 275.287 44.2617C275.97 44.5352 276.574 44.9339 277.098 45.458C277.622 45.9821 278.021 46.5859 278.294 47.2695C278.591 47.9531 278.739 48.6709 278.739 49.4229C278.739 50.1748 278.591 50.8926 278.294 51.5762C278.021 52.2598 277.622 52.8408 277.098 53.3193C276.574 53.8206 275.97 54.2194 275.287 54.5156C274.603 54.7891 273.885 54.9258 273.133 54.9258ZM268.382 94.1299C266.149 94.1299 264.383 93.4691 263.084 92.1475C261.626 90.6891 260.897 88.5586 260.897 85.7559C260.897 84.4342 261.079 82.9076 261.444 81.1758L266.195 58.7197H276.278L271.253 82.5088C271.071 83.1012 270.98 83.8532 270.98 84.7646C270.98 85.7217 271.196 86.3939 271.629 86.7812C272.085 87.1686 272.814 87.3623 273.817 87.3623C274.5 87.3623 275.161 87.2142 275.799 86.918C276.46 86.599 277.064 86.166 277.611 85.6191C278.727 84.5026 279.57 83.0215 280.14 81.1758H283.08C281.826 84.7077 280.254 87.5218 278.363 89.6182C276.768 91.3271 274.968 92.5576 272.962 93.3096C271.504 93.8564 269.977 94.1299 268.382 94.1299ZM290.394 93.9932C286.931 93.9932 284.253 93.1501 282.362 91.4639C280.243 89.5954 279.183 86.7585 279.183 82.9531C279.183 81.5176 279.331 79.9339 279.627 78.2021C279.924 76.4476 280.379 74.6816 280.995 72.9043C282.407 68.666 284.424 65.2822 287.044 62.7529C290.212 59.654 293.983 58.1045 298.358 58.1045C304.351 58.1045 307.347 61.8301 307.347 69.2812V69.3496C307.484 69.3952 307.598 69.418 307.689 69.418H308.099C309.649 69.418 311.483 68.985 313.602 68.1191C315.471 67.3444 317.236 66.376 318.9 65.2139L319.515 67.1279C318.148 68.5635 316.382 69.7826 314.217 70.7852C312.075 71.7878 309.706 72.5055 307.108 72.9385C306.834 76.1058 306.219 78.9997 305.262 81.6201C304.305 84.2178 303.075 86.4508 301.571 88.3193C300.09 90.1423 298.392 91.5436 296.478 92.5234C294.564 93.5033 292.536 93.9932 290.394 93.9932ZM293.197 87.7041C294.017 87.7041 294.849 87.3395 295.692 86.6104C296.558 85.8584 297.367 84.8216 298.119 83.5C298.871 82.1784 299.52 80.6289 300.067 78.8516C300.614 77.0742 301.024 75.1715 301.297 73.1436C300.614 72.9613 300.124 72.6195 299.828 72.1182C299.554 71.6169 299.417 70.9788 299.417 70.2041C299.417 69.2471 299.611 68.4495 299.999 67.8115C300.386 67.1735 300.921 66.7064 301.605 66.4102C301.514 64.929 301.275 63.8695 300.887 63.2314C300.682 62.9124 300.42 62.6846 300.101 62.5479C299.805 62.4111 299.417 62.3428 298.939 62.3428C297.367 62.3428 295.829 63.5277 294.325 65.8975C292.935 68.0394 291.795 70.6826 290.907 73.8271C290.041 76.9033 289.608 79.6377 289.608 82.0303C289.608 83.1924 289.665 84.138 289.779 84.8672C289.916 85.5964 290.132 86.166 290.428 86.5762C290.702 86.9863 291.055 87.2826 291.488 87.4648C291.921 87.6243 292.49 87.7041 293.197 87.7041ZM317.875 94.1299C315.641 94.1299 313.875 93.4691 312.577 92.1475C311.118 90.6891 310.389 88.5586 310.389 85.7559C310.389 84.4342 310.571 82.9076 310.936 81.1758L315.14 61.5225H312.816L313.397 58.7197H315.687L317.806 49.0469L328.163 47.6455L325.77 58.7197H329.974L329.427 61.5225H325.223L320.746 82.5088C320.563 83.1012 320.472 83.8532 320.472 84.7646C320.472 85.7217 320.689 86.3939 321.122 86.7812C321.577 87.1686 322.306 87.3623 323.309 87.3623C323.993 87.3623 324.653 87.2142 325.292 86.918C325.952 86.599 326.556 86.166 327.103 85.6191C328.22 84.5026 329.063 83.0215 329.632 81.1758H332.572C331.319 84.7077 329.746 87.5218 327.855 89.6182C326.26 91.3271 324.46 92.5576 322.455 93.3096C320.996 93.8564 319.47 94.1299 317.875 94.1299ZM339.681 94.1299C336.24 94.1299 333.586 93.264 331.717 91.5322C329.735 89.6865 328.744 86.8496 328.744 83.0215C328.744 81.5859 328.892 79.9909 329.188 78.2363C329.461 76.4818 329.883 74.7272 330.453 72.9727C331.091 71.013 331.9 69.1559 332.879 67.4014C333.882 65.6468 335.044 64.0973 336.366 62.7529C339.419 59.654 343.179 58.1045 347.645 58.1045C350.493 58.1045 352.567 58.7881 353.866 60.1553C354.868 61.2262 355.37 62.7757 355.37 64.8037C355.37 66.7861 354.937 68.6546 354.071 70.4092C353.205 72.141 352.009 73.679 350.482 75.0234C348.955 76.3451 347.223 77.4046 345.287 78.2021C343.35 78.9769 341.345 79.4326 339.271 79.5693C339.157 80.7542 339.1 81.6885 339.1 82.3721C339.1 84.6507 339.533 86.223 340.399 87.0889C341.151 87.8636 342.404 88.251 344.159 88.251C346.688 88.251 349.001 87.5674 351.097 86.2002C351.986 85.6305 352.84 84.9583 353.661 84.1836C354.481 83.3861 355.438 82.3835 356.532 81.1758H358.924C356.714 84.9128 354.173 87.8864 351.302 90.0967C347.77 92.7855 343.897 94.1299 339.681 94.1299ZM339.818 76.2197C341.117 76.1286 342.381 75.7526 343.612 75.0918C344.842 74.431 345.936 73.5651 346.893 72.4941C347.85 71.4004 348.602 70.1813 349.149 68.8369C349.696 67.4697 349.969 66.0798 349.969 64.667C349.969 63.7327 349.833 63.0264 349.559 62.5479C349.308 62.0465 348.864 61.7959 348.226 61.7959C347.383 61.7959 346.528 62.2061 345.663 63.0264C344.819 63.8467 343.999 64.9746 343.202 66.4102C342.472 67.7546 341.812 69.2812 341.219 70.9902C340.627 72.6992 340.16 74.4424 339.818 76.2197ZM366.546 94.1299C363.106 94.1299 360.451 93.264 358.583 91.5322C356.6 89.6865 355.609 86.8496 355.609 83.0215C355.609 81.5859 355.757 79.9909 356.053 78.2363C356.327 76.459 356.76 74.693 357.352 72.9385C358.742 68.6774 360.713 65.2822 363.265 62.7529C366.41 59.654 370.135 58.1045 374.442 58.1045C377.245 58.1045 379.318 58.7767 380.663 60.1211C381.711 61.1921 382.235 62.6618 382.235 64.5303C382.235 66.1709 381.87 67.4469 381.141 68.3584C380.458 69.2015 379.58 69.623 378.509 69.623C377.735 69.623 376.914 69.3496 376.048 68.8027C376.618 67.3216 376.903 65.943 376.903 64.667C376.903 63.7783 376.732 63.0833 376.39 62.582C376.071 62.0579 375.593 61.7959 374.955 61.7959C373.587 61.7959 372.163 63.0036 370.682 65.4189C369.338 67.5609 368.221 70.2839 367.333 73.5879C366.421 76.8236 365.965 79.7516 365.965 82.3721C365.965 84.6507 366.398 86.223 367.264 87.0889C368.016 87.8636 369.269 88.251 371.024 88.251C373.553 88.251 375.866 87.5674 377.962 86.2002C378.851 85.6305 379.706 84.9583 380.526 84.1836C381.346 83.3861 382.303 82.3835 383.397 81.1758H385.79C383.579 84.9128 381.039 87.8864 378.167 90.0967C374.636 92.7855 370.762 94.1299 366.546 94.1299ZM391.805 94.1299C389.139 94.1299 386.986 93.2982 385.345 91.6348C383.431 89.6751 382.474 86.7585 382.474 82.8848C382.474 81.2441 382.645 79.5124 382.987 77.6895C383.306 75.8665 383.784 74.0664 384.422 72.2891C385.881 68.2786 387.875 65.043 390.404 62.582C393.32 59.7793 396.681 58.3779 400.487 58.3779C402.378 58.3779 403.791 58.7083 404.725 59.3691C405.682 60.0072 406.161 60.8617 406.161 61.9326V62.4453L406.913 58.7197H416.996L411.971 82.5088C411.766 83.1924 411.664 83.9443 411.664 84.7646C411.664 86.7699 412.621 87.7725 414.535 87.7725C415.811 87.7725 416.973 87.123 418.021 85.8242C418.91 84.7305 419.639 83.181 420.208 81.1758H423.148C421.895 84.7305 420.379 87.5446 418.602 89.6182C417.098 91.3271 415.401 92.5576 413.509 93.3096C412.119 93.8564 410.65 94.1299 409.1 94.1299C407.118 94.1299 405.534 93.5944 404.349 92.5234C403.187 91.4297 402.481 89.8232 402.23 87.7041C400.908 89.5726 399.518 91.0309 398.06 92.0791C396.192 93.4463 394.107 94.1299 391.805 94.1299ZM396.351 87.3623C396.875 87.3623 397.422 87.2256 397.992 86.9521C398.584 86.6787 399.154 86.2913 399.701 85.79C400.931 84.6051 401.751 83.0671 402.162 81.1758L405.511 65.3848C405.511 65.1569 405.454 64.8949 405.34 64.5986C405.249 64.2796 405.112 63.9834 404.93 63.71C404.383 63.0492 403.62 62.7188 402.64 62.7188C401.706 62.7188 400.794 63.0264 399.906 63.6416C399.04 64.2568 398.22 65.1113 397.445 66.2051C396.078 68.1875 394.95 70.7738 394.061 73.9639C393.651 75.3766 393.343 76.778 393.138 78.168C392.933 79.5352 392.831 80.777 392.831 81.8936C392.831 84.2178 393.264 85.79 394.129 86.6104C394.426 86.9294 394.756 87.1344 395.121 87.2256C395.485 87.3167 395.895 87.3623 396.351 87.3623Z" fill="black"/>
<path d="M360.117 100.395C359.484 102.228 358.876 103.928 358.292 105.495C357.726 107.045 357.167 108.52 356.617 109.92C356.067 111.32 355.517 112.661 354.967 113.945C354.434 115.211 353.884 116.47 353.317 117.72H351.042C350.476 116.47 349.917 115.211 349.367 113.945C348.834 112.661 348.284 111.32 347.717 109.92C347.167 108.52 346.601 107.045 346.017 105.495C345.434 103.928 344.834 102.228 344.217 100.395H346.892C347.792 103.028 348.676 105.561 349.542 107.995C350.409 110.428 351.301 112.711 352.217 114.845C353.134 112.728 354.026 110.453 354.892 108.02C355.759 105.57 356.634 103.028 357.517 100.395H360.117ZM364.699 117.72H362.374V104.72H364.699V117.72ZM363.524 102.37C363.107 102.37 362.749 102.236 362.449 101.97C362.165 101.686 362.024 101.311 362.024 100.845C362.024 100.378 362.165 100.011 362.449 99.7447C362.749 99.4614 363.107 99.3197 363.524 99.3197C363.94 99.3197 364.29 99.4614 364.574 99.7447C364.874 100.011 365.024 100.378 365.024 100.845C365.024 101.311 364.874 101.686 364.574 101.97C364.29 102.236 363.94 102.37 363.524 102.37ZM373.497 104.445C373.697 104.445 373.922 104.461 374.172 104.495C374.438 104.511 374.697 104.545 374.947 104.595C375.197 104.628 375.422 104.67 375.622 104.72C375.838 104.753 375.997 104.786 376.097 104.82L375.697 106.845C375.513 106.778 375.205 106.703 374.772 106.62C374.355 106.52 373.813 106.47 373.147 106.47C372.713 106.47 372.28 106.52 371.847 106.62C371.43 106.703 371.155 106.761 371.022 106.795V117.72H368.697V105.27C369.247 105.07 369.93 104.886 370.747 104.72C371.563 104.536 372.48 104.445 373.497 104.445ZM380.515 104.72H385.44V106.67H380.515V112.67C380.515 113.32 380.565 113.861 380.665 114.295C380.765 114.711 380.915 115.045 381.115 115.295C381.315 115.528 381.565 115.695 381.865 115.795C382.165 115.895 382.515 115.945 382.915 115.945C383.615 115.945 384.174 115.87 384.59 115.72C385.024 115.553 385.324 115.436 385.49 115.37L385.94 117.295C385.707 117.411 385.299 117.553 384.715 117.72C384.132 117.903 383.465 117.995 382.715 117.995C381.832 117.995 381.099 117.886 380.515 117.67C379.949 117.436 379.49 117.095 379.14 116.645C378.79 116.195 378.54 115.645 378.39 114.995C378.257 114.328 378.19 113.561 378.19 112.695V101.095L380.515 100.695V104.72ZM398.749 117.345C398.216 117.478 397.507 117.62 396.624 117.77C395.757 117.92 394.749 117.995 393.599 117.995C392.599 117.995 391.757 117.853 391.074 117.57C390.391 117.27 389.841 116.853 389.424 116.32C389.007 115.786 388.707 115.161 388.524 114.445C388.341 113.711 388.249 112.903 388.249 112.02V104.72H390.574V111.52C390.574 113.103 390.824 114.236 391.324 114.92C391.824 115.603 392.666 115.945 393.849 115.945C394.099 115.945 394.357 115.936 394.624 115.92C394.891 115.903 395.141 115.886 395.374 115.87C395.607 115.836 395.816 115.811 395.999 115.795C396.199 115.761 396.341 115.728 396.424 115.695V104.72H398.749V117.345ZM407.154 116.045C407.704 116.045 408.188 116.036 408.604 116.02C409.038 115.986 409.396 115.936 409.679 115.87V111.995C409.513 111.911 409.238 111.845 408.854 111.795C408.488 111.728 408.038 111.695 407.504 111.695C407.154 111.695 406.779 111.72 406.379 111.77C405.996 111.82 405.638 111.928 405.304 112.095C404.988 112.245 404.721 112.461 404.504 112.745C404.288 113.011 404.179 113.37 404.179 113.82C404.179 114.653 404.446 115.236 404.979 115.57C405.513 115.886 406.238 116.045 407.154 116.045ZM406.954 104.395C407.888 104.395 408.671 104.52 409.304 104.77C409.954 105.003 410.471 105.345 410.854 105.795C411.254 106.228 411.538 106.753 411.704 107.37C411.871 107.97 411.954 108.636 411.954 109.37V117.495C411.754 117.528 411.471 117.578 411.104 117.645C410.754 117.695 410.354 117.745 409.904 117.795C409.454 117.845 408.963 117.886 408.429 117.92C407.913 117.97 407.396 117.995 406.879 117.995C406.146 117.995 405.471 117.92 404.854 117.77C404.238 117.62 403.704 117.386 403.254 117.07C402.804 116.736 402.454 116.303 402.204 115.77C401.954 115.236 401.829 114.595 401.829 113.845C401.829 113.128 401.971 112.511 402.254 111.995C402.554 111.478 402.954 111.061 403.454 110.745C403.954 110.428 404.538 110.195 405.204 110.045C405.871 109.895 406.571 109.82 407.304 109.82C407.538 109.82 407.779 109.836 408.029 109.87C408.279 109.886 408.513 109.92 408.729 109.97C408.963 110.003 409.163 110.036 409.329 110.07C409.496 110.103 409.613 110.128 409.679 110.145V109.495C409.679 109.111 409.638 108.736 409.554 108.37C409.471 107.986 409.321 107.653 409.104 107.37C408.888 107.07 408.588 106.836 408.204 106.67C407.838 106.486 407.354 106.395 406.754 106.395C405.988 106.395 405.313 106.453 404.729 106.57C404.163 106.67 403.738 106.778 403.454 106.895L403.179 104.97C403.479 104.836 403.979 104.711 404.679 104.595C405.379 104.461 406.138 104.395 406.954 104.395ZM419.716 117.97C418.283 117.936 417.266 117.628 416.666 117.045C416.066 116.461 415.766 115.553 415.766 114.32V98.7197L418.091 98.3197V113.945C418.091 114.328 418.124 114.645 418.191 114.895C418.258 115.145 418.366 115.345 418.516 115.495C418.666 115.645 418.866 115.761 419.116 115.845C419.366 115.911 419.674 115.97 420.041 116.02L419.716 117.97Z" fill="black"/>
</g>
<defs>
<clipPath id="clip0">
<rect width="435" height="180" fill="white"/>
</clipPath>
<clipPath id="clip1">
<rect width="128" height="128" fill="white" transform="translate(-11.3979 72.9862) rotate(-30)"/>
</clipPath>
<clipPath id="clip2">
<rect width="128" height="128" fill="white" transform="translate(25.408 28.1649) rotate(-10)"/>
</clipPath>
</defs>
</svg>
