<svg width="56" height="56" viewBox="0 0 56 56" fill="none" xmlns="http://www.w3.org/2000/svg">
<g filter="url(#filter0_d)">
<circle cx="28" cy="24" r="24" fill="url(#paint0_linear)"/>
</g>
<g clip-path="url(#clip0)">
<path d="M27.1765 23.1765H28.8236V32.2353H27.1765V23.1765Z" fill="#F5F5F5"/>
<path d="M23.8822 23.1765H25.5293V32.2353H23.8822V23.1765Z" fill="#F5F5F5"/>
<path d="M30.4706 23.1765H32.1176V32.2353H30.4706V23.1765Z" fill="#F5F5F5"/>
<path d="M38.7058 13.2941H32.1176V12.4706C32.1176 11.1083 31.0093 10 29.647 10H26.3529C24.9906 10 23.8823 11.1083 23.8823 12.4706V13.2941H17.2941V18.2353H19.0096L20.5241 35.6525C20.5894 36.9706 21.6695 38 22.9916 38H33.0083C34.3304 38 35.4104 36.9706 35.4758 35.6525L36.9903 18.2353H38.7058V13.2941ZM25.5294 12.4706C25.5294 12.0165 25.8988 11.6471 26.3529 11.6471H29.647C30.1012 11.6471 30.4705 12.0165 30.4705 12.4706V13.2941H25.5294V12.4706ZM18.9411 14.9412H37.0588V16.5882H18.9411V14.9412ZM33.8311 35.5637C33.8127 36.0062 33.4513 36.3529 33.0083 36.3529H22.9916C22.5486 36.3529 22.1872 36.0063 22.1688 35.5637C20.5575 17.0229 20.6677 18.2906 20.6629 18.2353H35.337C35.3327 18.285 35.4352 17.106 33.8311 35.5637Z" fill="#F5F5F5"/>
</g>
<defs>
<filter id="filter0_d" x="0" y="0" width="56" height="56" filterUnits="userSpaceOnUse" color-interpolation-filters="sRGB">
<feFlood flood-opacity="0" result="BackgroundImageFix"/>
<feColorMatrix in="SourceAlpha" type="matrix" values="0 0 0 0 0 0 0 0 0 0 0 0 0 0 0 0 0 0 127 0"/>
<feOffset dy="4"/>
<feGaussianBlur stdDeviation="2"/>
<feColorMatrix type="matrix" values="0 0 0 0 0 0 0 0 0 0 0 0 0 0 0 0 0 0 0.25 0"/>
<feBlend mode="normal" in2="BackgroundImageFix" result="effect1_dropShadow"/>
<feBlend mode="normal" in="SourceGraphic" in2="effect1_dropShadow" result="shape"/>
</filter>
<linearGradient id="paint0_linear" x1="4" y1="24" x2="52" y2="24" gradientUnits="userSpaceOnUse">
<stop offset="0.0001" stop-color="#69D316" stop-opacity="0.927083"/>
<stop offset="0.0002" stop-color="#5EC20F"/>
<stop offset="0.0003" stop-color="#FF0000"/>
<stop offset="1" stop-color="#FF574D"/>
</linearGradient>
<clipPath id="clip0">
<rect width="28" height="28" fill="white" transform="translate(14 10)"/>
</clipPath>
</defs>
</svg>
