<svg width="56" height="56" viewBox="0 0 56 56" fill="none" xmlns="http://www.w3.org/2000/svg">
<g filter="url(#filter0_d)">
<circle cx="28" cy="24" r="24" fill="url(#paint0_linear)"/>
</g>
<path d="M37.9687 10H17.2812C15.472 10 14 11.472 14 13.2812V34.7188C14 36.528 15.472 38 17.2812 38H38.7188C40.528 38 42 36.528 42 34.7188V14.0313L37.9687 10ZM20.5625 12.1875H33.1406V18.6406H20.5625V12.1875ZM35.4375 35.8125H20.5625V27.1719H35.4375V35.8125ZM39.8125 34.7188C39.8125 35.3218 39.3218 35.8125 38.7188 35.8125H37.625V24.9844H18.375V35.8125H17.2812C16.6782 35.8125 16.1875 35.3218 16.1875 34.7188V13.2812C16.1875 12.6782 16.6782 12.1875 17.2812 12.1875H18.375V20.8281H35.3281V12.1875H37.0626L39.8125 14.9374V34.7188Z" fill="#F5F5F5"/>
<path d="M31.1719 13.2266H28.9844V17.5469H31.1719V13.2266Z" fill="#F5F5F5"/>
<defs>
<filter id="filter0_d" x="0" y="0" width="56" height="56" filterUnits="userSpaceOnUse" color-interpolation-filters="sRGB">
<feFlood flood-opacity="0" result="BackgroundImageFix"/>
<feColorMatrix in="SourceAlpha" type="matrix" values="0 0 0 0 0 0 0 0 0 0 0 0 0 0 0 0 0 0 127 0"/>
<feOffset dy="4"/>
<feGaussianBlur stdDeviation="2"/>
<feColorMatrix type="matrix" values="0 0 0 0 0 0 0 0 0 0 0 0 0 0 0 0 0 0 0.25 0"/>
<feBlend mode="normal" in2="BackgroundImageFix" result="effect1_dropShadow"/>
<feBlend mode="normal" in="SourceGraphic" in2="effect1_dropShadow" result="shape"/>
</filter>
<linearGradient id="paint0_linear" x1="4" y1="24" x2="52" y2="24" gradientUnits="userSpaceOnUse">
<stop stop-color="#10C200"/>
<stop offset="1" stop-color="#6AE667"/>
</linearGradient>
</defs>
</svg>
