<svg width="128" height="128" viewBox="0 0 128 128" fill="none" xmlns="http://www.w3.org/2000/svg">
<g clip-path="url(#clip0)">
<path d="M109.255 18.7451C97.167 6.65723 81.0947 0 64 0C46.9043 0 30.833 6.65723 18.7451 18.7451C6.65723 30.833 0 46.9043 0 64C0 81.0947 6.65723 97.167 18.7451 109.255C30.833 121.343 46.9043 128 64 128C81.0947 128 97.167 121.343 109.255 109.255C121.343 97.167 128 81.0947 128 64C128 46.9043 121.343 30.833 109.255 18.7451ZM32.085 110.597C34.7617 95.1846 48.1172 83.8164 64 83.8164C79.8838 83.8164 93.2383 95.1846 95.915 110.597C86.8281 116.84 75.834 120.5 64 120.5C52.166 120.5 41.1719 116.84 32.085 110.597ZM43.6504 55.9668C43.6504 44.7451 52.7793 35.6172 64 35.6172C75.2207 35.6172 84.3496 44.7461 84.3496 55.9668C84.3496 67.1875 75.2207 76.3164 64 76.3164C52.7793 76.3164 43.6504 67.1875 43.6504 55.9668ZM102.411 105.395C100.393 98.2197 96.3838 91.71 90.7646 86.625C87.3174 83.5049 83.3936 81.043 79.1748 79.3076C86.7998 74.334 91.8506 65.7295 91.8506 55.9668C91.8506 40.6104 79.3564 28.1172 64 28.1172C48.6436 28.1172 36.1504 40.6104 36.1504 55.9668C36.1504 65.7295 41.2012 74.334 48.8252 79.3076C44.6074 81.043 40.6826 83.5039 37.2354 86.624C31.6172 91.709 27.6074 98.2188 25.5889 105.394C14.4707 95.0684 7.5 80.334 7.5 64C7.5 32.8457 32.8457 7.5 64 7.5C95.1543 7.5 120.5 32.8457 120.5 64C120.5 80.335 113.529 95.0693 102.411 105.395Z" fill="url(#paint0_linear)"/>
</g>
<defs>
<linearGradient id="paint0_linear" x1="-4.47036e-07" y1="63.9999" x2="128" y2="63.9999" gradientUnits="userSpaceOnUse">
<stop stop-color="#284BFF" stop-opacity="0.75"/>
<stop offset="1" stop-color="#9949FF" stop-opacity="0.75"/>
</linearGradient>
<clipPath id="clip0">
<rect width="128" height="128" fill="white"/>
</clipPath>
</defs>
</svg>
